Coordinates
version=1
nRows=17
nColumns=36
inDegrees=yes

Units are S.I. units (second, meters, Newtons, ...)
If the header above contains a line with 'inDegrees', this indicates whether rotational values are in degrees (yes) or radians (no).

endheader
time	pelvis_tilt	pelvis_list	pelvis_rotation	pelvis_tx	pelvis_ty	pelvis_tz	hip_flexion_r	hip_adduction_r	hip_rotation_r	knee_angle_r	knee_angle_r_beta	ankle_angle_r	subtalar_angle_r	mtp_angle_r	hip_flexion_l	hip_adduction_l	hip_rotation_l	knee_angle_l	knee_angle_l_beta	ankle_angle_l	subtalar_angle_l	mtp_angle_l	lumbar_extension	lumbar_bending	lumbar_rotation	arm_flex_r	arm_add_r	arm_rot_r	elbow_flex_r	pro_sup_r	arm_flex_l	arm_add_l	arm_rot_l	elbow_flex_l	pro_sup_l
      3.61666670	      5.92801012	     -5.28669866	     14.58519814	      0.92803856	      0.96271335	     -0.19741019	     22.76752432	     -5.05424063	     -5.32197568	     99.79639827	      1.74177573	     -2.90827115	    -18.36915746	     -7.49999987	     -5.61182428	     -0.17081676	     13.00020797	      4.60569647	      0.08038457	      7.34920852	    -13.71795796	     -7.49999987	    -16.02971729	      3.18572032	      0.06568178	     35.42578268	      7.77138801	     68.81650623	    131.36432886	     88.47521944	     40.29131336	      9.80898485	     62.30693119	    124.55468868	     70.70646858
      3.63333330	      5.98908033	     -5.21759625	     14.34631658	      0.92795353	      0.96148051	     -0.19712322	     21.73348782	     -4.91388029	     -5.02279577	     99.07212310	      1.72913474	     -1.93745537	    -17.33040658	     -7.49999987	     -5.54280510	     -0.01893076	     12.55040504	      5.07021232	      0.08849190	      7.53927973	    -13.70837708	     -7.49999987	    -16.28577523	      3.05365189	      0.44553514	     35.69338142	      7.75573532	     68.98714405	    131.40960506	     87.58321559	     40.13067617	      9.56566653	     62.49748545	    124.81482740	     70.57416983
      3.65000000	      6.06982589	     -5.06792962	     14.34314849	      0.92814991	      0.96336647	     -0.19737430	     20.59013225	     -4.69898083	     -4.81420647	     98.31352733	      1.71589475	     -1.02472198	    -15.98972784	     -7.49999987	     -5.53420998	      0.18874254	     12.52814269	      5.36076444	      0.09356299	      7.06464774	    -14.17393160	     -7.49999987	    -16.69612546	      2.75668692	      0.64064482	     35.98403994	      7.85938264	     68.65750034	    130.96635254	     91.19044752	     40.10644865	      9.36367814	     62.44239948	    124.87563489	     74.36068989
      3.66666670	      6.05097584	     -4.89868545	     14.20597477	      0.93196813	      0.96016766	     -0.19603373	     19.50122886	     -4.32944233	     -4.53622664	     97.67326960	      1.70472015	     -0.04761254	    -14.83392847	     -7.49999987	     -5.53424019	      0.35821639	     12.16937825	      5.55404271	      0.09693633	      7.21899348	    -13.81907100	     -7.49999987	    -16.77329135	      2.31444810	      1.03991943	     36.14768039	      8.01489976	     68.61753056	    130.69165665	     89.11983154	     40.31208710	      9.14341408	     62.74342724	    124.97644083	     73.12557373
      3.68333330	      5.99520129	     -4.76378162	     14.12359672	      0.92844535	      0.96182933	     -0.19775117	     18.81719881	     -4.12880666	     -4.31490468	     97.25873607	      1.69748517	      0.00273999	    -14.07281550	     -7.49999987	     -5.23970490	      0.63467261	     12.13169356	      5.99400049	      0.10461504	      7.29669520	    -14.00588672	     -7.49999987	    -17.00188971	      1.97208682	      1.37759811	     36.61085670	      8.21766417	     68.56048223	    130.30462511	     89.29940085	     40.76284016	      9.13272191	     62.96470497	    124.94203579	     73.20717377
      3.70000000	      5.88592329	     -4.58102912	     13.88763294	      0.92856508	      0.95842710	     -0.19787409	     18.31716940	     -4.12179764	     -4.14694742	     97.17054117	      1.69594588	      0.20400284	    -13.00639130	     -7.49999987	     -5.00511729	      0.93354508	     11.78088414	      6.28608287	      0.10971284	      7.40386874	    -13.95946291	     -7.49999987	    -17.14738701	      1.54528932	      1.74325969	     37.04441264	      8.36800769	     68.42621501	    130.05487945	     88.77214984	     41.12724809	      9.05843839	     63.23370416	    125.02223455	     72.88044387
      3.71666670	      5.58927724	     -4.42298562	     13.72622459	      0.92923206	      0.95636573	     -0.19822044	     17.88902015	     -4.10093942	     -4.02429755	     96.94135835	      1.69194588	     -0.26742254	    -12.56253516	     -7.49999987	     -4.52213843	      1.29907940	     11.66191861	      6.66200608	      0.11627394	      7.59044719	    -13.91787027	     -7.49999987	    -17.08956598	      1.09491129	      1.99967174	     37.12294020	      8.39984354	     68.04650443	    130.03487408	     91.03132825	     41.59686359	      9.03628768	     63.33175964	    124.84816940	     73.48925588
      3.73333330	      5.18939692	     -4.22172133	     13.54295970	      0.92929340	      0.95306344	     -0.19787723	     17.56152520	     -4.14558208	     -3.80536489	     96.75154470	      1.68863301	     -1.14574793	    -12.10271588	     -7.49999987	     -3.93796560	      1.69601277	     11.49243778	      7.03631188	      0.12280681	      8.01845372	    -13.68911215	     -7.49999987	    -16.85228049	      0.61644972	      2.14229286	     37.28959509	      8.47620120	     67.77741792	    130.12056893	     89.75399058	     41.95837013	      8.89218442	     63.25301820	    124.97734130	     72.78472874
      3.75000000	      4.98966751	     -4.13822348	     13.37200745	      0.92965837	      0.95354934	     -0.19780040	     16.91593790	     -4.08336770	     -3.87289538	     96.15172857	      1.67816425	     -2.36233048	    -11.94161954	     -7.49999987	     -3.68826741	      1.85505571	     11.37187409	      7.21796187	      0.12597720	      8.07032699	    -13.91179033	     -7.49999987	    -16.87444270	      0.29631926	      2.40478701	     37.41885284	      8.42734936	     67.64741911	    130.13744389	     88.96651538	     42.45676411	      8.79402312	     63.26535538	    124.80411199	     72.21628523
      3.76666670	      4.65284405	     -4.00352732	     13.35949776	      0.92976152	      0.95224208	     -0.19782805	     16.48001360	     -4.18753307	     -4.08740017	     95.69482752	      1.67018982	     -3.80332400	    -11.71880637	     -7.49999987	     -3.14021150	      2.10181472	     11.21000622	      7.67978986	      0.13403762	      8.33461555	    -13.98006677	     -7.49999987	    -16.79616746	     -0.03553584	      2.53282843	     37.32156551	      8.30051136	     67.37756741	    130.24230604	     91.70915493	     42.79042890	      8.73118762	     63.00091970	    124.66932043	     73.07745040
      3.78333330	      4.32191305	     -3.87973521	     13.26391213	      0.92380351	      0.94961361	     -0.19642827	     16.30430690	     -4.28975475	     -4.26277780	     95.33234684	      1.66386334	     -4.78396138	    -11.14187686	     -7.49999987	     -2.51720426	      2.33547670	     10.89528988	      8.08756814	      0.14115469	      8.45994125	    -14.30188336	     -7.49999987	    -16.95764675	     -0.36309273	      2.52812754	     37.50894786	      8.30194565	     67.38238142	    130.33201528	     91.72379560	     43.35576508	      8.55043343	     62.77342645	    124.57757589	     73.06649713
      3.80000000	      3.83073631	     -3.66230649	     13.13897084	      0.92420372	      0.94420458	     -0.19669530	     16.28291612	     -4.71225277	     -4.40784723	     95.43725963	      1.66569441	     -5.86043318	    -10.47723826	     -7.49999987	     -1.69175204	      2.73398071	     10.60354894	      8.62456140	      0.15052699	      8.53181194	    -14.92204018	     -7.49999987	    -16.83647802	     -0.82434894	      2.59142492	     37.80972194	      8.17654164	     67.42082126	    130.51805584	     90.94668227	     43.91129716	      8.45885730	     62.59820952	    124.34240378	     72.78332105
      3.81666670	      3.21379871	     -3.52155354	     12.93582468	      0.92489104	      0.94420198	     -0.19656153	     16.23698108	     -5.13953917	     -4.69150546	     95.04061362	      1.65877163	     -6.93072929	     -9.68651449	     -7.49999987	     -0.87670240	      3.07853541	     10.21679395	      8.96771668	      0.15651618	      8.77513158	    -15.20220225	     -7.49999987	    -16.48516451	     -1.28555620	      2.62952695	     37.77185006	      8.06959021	     67.46201134	    130.79891617	     89.75733079	     44.06236908	      8.34555837	     62.43821031	    124.25093615	     72.09538326
      3.83333330	      2.94814826	     -3.52390127	     12.67699924	      0.92493430	      0.94508417	     -0.19644852	     15.64105948	     -5.29007606	     -5.08678741	     94.23678539	      1.64474218	     -7.89084827	     -8.71060110	     -7.49999987	     -0.51864047	      3.20284958	     10.19410910	      9.00684379	      0.15719908	      8.70385539	    -15.53919578	     -7.49999987	    -16.55365879	     -1.49919137	      2.64947042	     37.93932812	      7.96246989	     67.76163649	    131.04233416	     89.20913920	     44.29373840	      8.28870326	     62.44479277	    124.08967991	     71.76805621
      3.85000000	      2.69980216	     -3.49229809	     12.52896972	      0.92520955	      0.94687477	     -0.19644191	     15.04025478	     -5.50176795	     -5.52204021	     93.40795671	      1.63027639	     -9.21155612	     -7.79862627	     -7.49999987	     -0.27942917	      3.33635241	     10.23258020	      8.93606343	      0.15596373	      8.49389239	    -15.72894587	     -7.49999987	    -16.54556713	     -1.72063003	      2.75234663	     37.88845438	      7.86152769	     67.74156060	    130.89889870	     92.01731676	     44.33044803	      8.33187672	     62.37978722	    123.62737200	     73.05633083
      3.86666670	      2.35208183	     -3.53343559	     12.40670769	      0.92245216	      0.94646053	     -0.19315759	     14.62605015	     -5.47208661	     -5.90956308	     92.55063799	      1.61531336	    -10.51085264	     -6.75383841	     -7.49999987	      0.25115548	      3.33361359	     10.16126901	      8.97869530	      0.15670780	      8.43457846	    -15.63683209	     -7.49999987	    -16.58889507	     -1.88689684	      2.84967966	     37.93639536	      7.89438140	     67.86552047	    130.75276858	     92.03060928	     44.53318447	      8.36067632	     62.36817304	    123.39924239	     73.04544969
      3.88333330	      1.97967920	     -3.49618871	     12.23841452	      0.91942570	      0.94175555	     -0.19513312	     14.43108398	     -5.51623116	     -6.01044764	     92.03889398	      1.60638174	    -11.44879305	     -6.05103633	     -7.49999987	      1.22761895	      3.49627771	      9.56247019	      9.77851618	      0.17066730	      8.98830423	    -15.27162022	     -7.49999987	    -16.59990392	     -2.02143374	      2.92907415	     38.14220458	      7.87374762	     68.39034078	    130.66271909	     89.89815505	     44.71460289	      8.38090494	     62.50893459	    123.17212084	     72.24831835
